<svg width="1102" height="322" viewBox="0 0 1102 322" version="1.1" xmlns="http://www.w3.org/2000/svg" xmlns:xlink="http://www.w3.org/1999/xlink">
<g id="Canvas" fill="none">
<g id="Group">
<path id="Subtract" fill-rule="evenodd" clip-rule="evenodd" d="M 0 2.60001C 0 1.16406 1.16406 0 2.59998 0L 1099.4 0C 1100.84 0 1102 1.16406 1102 2.60001L 1102 319.4C 1102 320.836 1100.84 322 1099.4 322L 2.59998 322C 1.16406 322 0 320.836 0 319.4L 0 2.60001ZM 478 10L 624 10L 624 156L 478 156L 478 10ZM 468 10L 322 10L 322 156L 468 156L 468 10ZM 166 10L 312 10L 312 156L 166 156L 166 10ZM 156 10L 10 10L 10 156L 156 156L 156 10ZM 634 10L 780 10L 780 156L 634 156L 634 10ZM 936 10L 790 10L 790 156L 936 156L 936 10ZM 946 10L 1092 10L 1092 156L 946 156L 946 10ZM 624 166L 478 166L 478 312L 624 312L 624 166ZM 322 166L 468 166L 468 312L 322 312L 322 166ZM 312 166L 166 166L 166 312L 312 312L 312 166ZM 10 166L 156 166L 156 312L 10 312L 10 166ZM 780 166L 634 166L 634 312L 780 312L 780 166ZM 790 166L 936 166L 936 312L 790 312L 790 166ZM 1092 166L 946 166L 946 312L 1092 312L 1092 166Z" fill="#40434C"/>
<path id="HARMONY" d="M 0.0401844 99.072C -0.247816 100.944 1.04818 102.24 2.77618 102.24L 19.7682 102.24C 21.2082 102.24 22.3602 101.088 22.5042 99.936L 28.8402 55.44L 29.1282 55.44L 53.4642 102.096C 53.8962 102.96 55.0482 103.68 55.9122 103.68L 58.5042 103.68C 59.2242 103.68 60.5202 102.96 60.9522 102.096L 85.1442 55.44L 85.4322 55.44L 91.9122 99.936C 92.0562 101.088 93.3522 102.24 94.6482 102.24L 111.64 102.24C 113.368 102.24 114.664 100.944 114.376 99.072L 98.1042 2.304C 97.9602 1.008 96.6642 0 95.5122 0L 93.2082 0C 92.4882 0 91.1922 0.576001 90.7602 1.44L 57.3522 63.648L 57.0642 63.648L 23.6562 1.44C 23.2242 0.576001 21.9282 0 21.2082 0L 18.9042 0C 17.7522 0 16.4562 1.008 16.3122 2.304L 0.0401844 99.072Z" transform="translate(494 31)" fill="#40434C"/>
<g id="HARMONY_2" transform="translate(40 32.44)">
<path d="M 0 98.064C 0 99.504 1.296 100.8 2.736 100.8L 19.872 100.8C 21.456 100.8 22.608 99.504 22.608 98.064L 22.608 60.192L 63.792 60.192L 63.792 98.064C 63.792 99.504 64.944 100.8 66.528 100.8L 83.664 100.8C 85.104 100.8 86.4 99.504 86.4 98.064L 86.4 2.736C 86.4 1.296 85.104 0 83.664 0L 66.528 0C 64.944 0 63.792 1.296 63.792 2.736L 63.792 39.024L 22.608 39.024L 22.608 2.736C 22.608 1.296 21.456 0 19.872 0L 2.736 0C 1.296 0 0 1.296 0 2.736L 0 98.064Z" fill="#40434C"/>
<path d="M 0 98.064C 0 99.504 1.296 100.8 2.736 100.8L 19.872 100.8C 21.456 100.8 22.608 99.504 22.608 98.064L 22.608 60.192L 63.792 60.192L 63.792 98.064C 63.792 99.504 64.944 100.8 66.528 100.8L 83.664 100.8C 85.104 100.8 86.4 99.504 86.4 98.064L 86.4 2.736C 86.4 1.296 85.104 0 83.664 0L 66.528 0C 64.944 0 63.792 1.296 63.792 2.736L 63.792 39.024L 22.608 39.024L 22.608 2.736C 22.608 1.296 21.456 0 19.872 0L 2.736 0C 1.296 0 0 1.296 0 2.736L 0 98.064Z" fill="#40434C"/>
</g>
<path id="HARMONY_3" d="M 2.73653 102.24L 18.5765 102.24C 21.4565 102.24 23.0405 100.512 23.7605 98.784L 28.9445 87.264L 68.1125 87.264L 73.2965 98.64C 74.5925 101.376 75.7445 102.24 78.3365 102.24L 94.3205 102.24C 96.4805 102.24 97.6325 100.368 96.7685 98.496L 51.6965 1.584C 51.2645 0.720002 50.2565 0 49.2485 0L 47.8085 0C 46.8005 0 45.7925 0.720002 45.3605 1.584L 0.288528 98.496C -0.575472 100.368 0.576526 102.24 2.73653 102.24ZM 37.5845 67.68L 48.3845 43.92L 48.5285 43.92L 59.4725 67.68L 37.5845 67.68Z" transform="translate(190 31)" fill="#40434C"/>
<path id="HARMONY_4" d="M 0 98.064C 0 99.504 1.15199 100.8 2.73599 100.8L 19.872 100.8C 21.312 100.8 22.608 99.504 22.608 98.064L 22.608 61.344L 32.544 61.344L 51.696 99.504C 51.984 100.08 52.848 100.8 54 100.8L 73.152 100.8C 75.6 100.8 76.608 98.496 75.6 96.624L 55.872 60.048C 68.4 55.008 77.184 44.352 77.184 31.104C 77.184 13.968 63.072 0 45.792 0L 2.73599 0C 1.15199 0 0 1.296 0 2.736L 0 98.064ZM 22.608 43.056L 22.608 20.592L 43.92 20.592C 49.824 20.592 54.864 25.488 54.864 31.536C 54.864 37.584 49.824 43.056 43.92 43.056L 22.608 43.056Z" transform="translate(356 32.44)" fill="#40434C"/>
<g id="HARMONY_5" transform="translate(655 31)">
<path d="M 0 51.984C 0 80.784 22.896 103.68 51.696 103.68C 80.496 103.68 103.536 80.784 103.536 51.984C 103.536 23.184 80.496 0 51.696 0C 22.896 0 0 23.184 0 51.984ZM 23.04 51.984C 23.04 36.144 36 23.04 51.696 23.04C 67.536 23.04 80.496 36.144 80.496 51.984C 80.496 67.68 67.536 80.64 51.696 80.64C 36 80.64 23.04 67.68 23.04 51.984Z" fill="#40434C"/>
<path d="M 0 51.984C 0 80.784 22.896 103.68 51.696 103.68C 80.496 103.68 103.536 80.784 103.536 51.984C 103.536 23.184 80.496 0 51.696 0C 22.896 0 0 23.184 0 51.984ZM 23.04 51.984C 23.04 36.144 36 23.04 51.696 23.04C 67.536 23.04 80.496 36.144 80.496 51.984C 80.496 67.68 67.536 80.64 51.696 80.64C 36 80.64 23.04 67.68 23.04 51.984Z" fill="#40434C"/>
</g>
<path id="HARMONY_6" d="M 0.143982 99.504C 0.143982 100.944 1.44001 102.24 2.88 102.24L 20.016 102.24C 21.6 102.24 22.752 100.944 22.752 99.504L 22.752 45.792L 22.896 45.792L 79.776 102.96C 80.064 103.248 81.216 103.68 81.648 103.68L 83.952 103.68C 85.392 103.68 86.688 102.528 86.688 101.088L 86.688 4.176C 86.688 2.736 85.392 1.44 83.952 1.44L 66.672 1.44C 65.088 1.44 63.936 2.736 63.936 4.176L 63.936 55.296L 63.792 55.296L 6.336 0L 2.73602 0C 1.29602 0 0 1.152 0 2.592L 0.143982 99.504Z" transform="translate(820 31)" fill="#40434C"/>
<path id="HARMONY_7" d="M 32.276 98.064C 32.276 99.504 33.4279 100.8 35.0119 100.8L 52.1479 100.8C 53.5879 100.8 54.8839 99.504 54.8839 98.064L 54.8839 52.128L 87.1399 4.176C 88.2919 2.304 87.14 0 84.836 0L 66.1159 0C 64.8199 0 64.2439 0.72 63.8119 1.296L 43.7959 30.816L 23.7799 1.296C 23.3479 0.72 22.6279 0 21.4759 0L 2.75595 0C 0.451949 0 -0.700068 2.304 0.451932 4.176L 32.276 52.272L 32.276 98.064Z" transform="translate(975 32.44)" fill="#40434C"/>
</g>
</g>
</svg>
