<svg width="1102" height="322" viewBox="0 0 1102 322" fill="none" xmlns="http://www.w3.org/2000/svg">
<g id="Group">
<path id="Subtract" fill-rule="evenodd" clip-rule="evenodd" d="M0 2.60001C0 1.16406 1.16406 0 2.59998 0H1099.4C1100.84 0 1102 1.16406 1102 2.60001V319.4C1102 320.836 1100.84 322 1099.4 322H2.59998C1.16406 322 0 320.836 0 319.4V2.60001ZM478 10H624V156H478V10ZM468 10H322V156H468V10ZM166 10H312V156H166V10ZM156 10H10V156H156V10ZM634 10H780V156H634V10ZM936 10H790V156H936V10ZM946 10H1092V156H946V10ZM624 166H478V312H624V166ZM322 166H468V312H322V166ZM312 166H166V312H312V166ZM10 166H156V312H10V166ZM780 166H634V312H780V166ZM790 166H936V312H790V166ZM1092 166H946V312H1092V166Z" fill="#151619"/>
<path id="HARMONY" d="M0.0401844 99.072C-0.247816 100.944 1.04818 102.24 2.77618 102.24H19.7682C21.2082 102.24 22.3602 101.088 22.5042 99.936L28.8402 55.44H29.1282L53.4642 102.096C53.8962 102.96 55.0482 103.68 55.9122 103.68H58.5042C59.2242 103.68 60.5202 102.96 60.9522 102.096L85.1442 55.44H85.4322L91.9122 99.936C92.0562 101.088 93.3522 102.24 94.6482 102.24H111.64C113.368 102.24 114.664 100.944 114.376 99.072L98.1042 2.304C97.9602 1.008 96.6642 0 95.5122 0H93.2082C92.4882 0 91.1922 0.576001 90.7602 1.44L57.3522 63.648H57.0642L23.6562 1.44C23.2242 0.576001 21.9282 0 21.2082 0H18.9042C17.7522 0 16.4562 1.008 16.3122 2.304L0.0401844 99.072Z" transform="translate(494 31)" fill="#151619"/>
<g id="HARMONY_2" transform="translate(40 32.44)">
<path d="M0 98.064C0 99.504 1.296 100.8 2.736 100.8H19.872C21.456 100.8 22.608 99.504 22.608 98.064V60.192H63.792V98.064C63.792 99.504 64.944 100.8 66.528 100.8H83.664C85.104 100.8 86.4 99.504 86.4 98.064V2.736C86.4 1.296 85.104 0 83.664 0H66.528C64.944 0 63.792 1.296 63.792 2.736V39.024H22.608V2.736C22.608 1.296 21.456 0 19.872 0H2.736C1.296 0 0 1.296 0 2.736V98.064Z" fill="#151619"/>
<path d="M0 98.064C0 99.504 1.296 100.8 2.736 100.8H19.872C21.456 100.8 22.608 99.504 22.608 98.064V60.192H63.792V98.064C63.792 99.504 64.944 100.8 66.528 100.8H83.664C85.104 100.8 86.4 99.504 86.4 98.064V2.736C86.4 1.296 85.104 0 83.664 0H66.528C64.944 0 63.792 1.296 63.792 2.736V39.024H22.608V2.736C22.608 1.296 21.456 0 19.872 0H2.736C1.296 0 0 1.296 0 2.736V98.064Z" fill="#151619"/>
</g>
<path id="HARMONY_3" d="M2.73653 102.24H18.5765C21.4565 102.24 23.0405 100.512 23.7605 98.784L28.9445 87.264H68.1125L73.2965 98.64C74.5925 101.376 75.7445 102.24 78.3365 102.24H94.3205C96.4805 102.24 97.6325 100.368 96.7685 98.496L51.6965 1.584C51.2645 0.720002 50.2565 0 49.2485 0H47.8085C46.8005 0 45.7925 0.720002 45.3605 1.584L0.288528 98.496C-0.575472 100.368 0.576526 102.24 2.73653 102.24ZM37.5845 67.68L48.3845 43.92H48.5285L59.4725 67.68H37.5845Z" transform="translate(190 31)" fill="#151619"/>
<path id="HARMONY_4" d="M0 98.064C0 99.504 1.15199 100.8 2.73599 100.8H19.872C21.312 100.8 22.608 99.504 22.608 98.064V61.344H32.544L51.696 99.504C51.984 100.08 52.848 100.8 54 100.8H73.152C75.6 100.8 76.608 98.496 75.6 96.624L55.872 60.048C68.4 55.008 77.184 44.352 77.184 31.104C77.184 13.968 63.072 0 45.792 0H2.73599C1.15199 0 0 1.296 0 2.736V98.064ZM22.608 43.056V20.592H43.92C49.824 20.592 54.864 25.488 54.864 31.536C54.864 37.584 49.824 43.056 43.92 43.056H22.608Z" transform="translate(356 32.44)" fill="#151619"/>
<g id="HARMONY_5" transform="translate(655 31)">
<path d="M0 51.984C0 80.784 22.896 103.68 51.696 103.68C80.496 103.68 103.536 80.784 103.536 51.984C103.536 23.184 80.496 0 51.696 0C22.896 0 0 23.184 0 51.984ZM23.04 51.984C23.04 36.144 36 23.04 51.696 23.04C67.536 23.04 80.496 36.144 80.496 51.984C80.496 67.68 67.536 80.64 51.696 80.64C36 80.64 23.04 67.68 23.04 51.984Z" fill="#151619"/>
<path d="M0 51.984C0 80.784 22.896 103.68 51.696 103.68C80.496 103.68 103.536 80.784 103.536 51.984C103.536 23.184 80.496 0 51.696 0C22.896 0 0 23.184 0 51.984ZM23.04 51.984C23.04 36.144 36 23.04 51.696 23.04C67.536 23.04 80.496 36.144 80.496 51.984C80.496 67.68 67.536 80.64 51.696 80.64C36 80.64 23.04 67.68 23.04 51.984Z" fill="#151619"/>
</g>
<path id="HARMONY_6" d="M0.143982 99.504C0.143982 100.944 1.44001 102.24 2.88 102.24H20.016C21.6 102.24 22.752 100.944 22.752 99.504V45.792H22.896L79.776 102.96C80.064 103.248 81.216 103.68 81.648 103.68H83.952C85.392 103.68 86.688 102.528 86.688 101.088V4.176C86.688 2.736 85.392 1.44 83.952 1.44H66.672C65.088 1.44 63.936 2.736 63.936 4.176V55.296H63.792L6.336 0H2.73602C1.29602 0 0 1.152 0 2.592L0.143982 99.504Z" transform="translate(820 31)" fill="#151619"/>
<path id="HARMONY_7" d="M32.276 98.064C32.276 99.504 33.4279 100.8 35.0119 100.8H52.1479C53.5879 100.8 54.8839 99.504 54.8839 98.064V52.128L87.1399 4.176C88.2919 2.304 87.14 0 84.836 0H66.1159C64.8199 0 64.2439 0.72 63.8119 1.296L43.7959 30.816L23.7799 1.296C23.3479 0.72 22.6279 0 21.4759 0H2.75595C0.451949 0 -0.700068 2.304 0.451932 4.176L32.276 52.272V98.064Z" transform="translate(975 32.44)" fill="#151619"/>
</g>
</svg>
